<svg xmlns="http://www.w3.org/2000/svg" xmlns:xlink="http://www.w3.org/1999/xlink" viewBox="0 0 565.36 429.1" class="drawing-svg"><defs><style>.cls-1,.cls-8{fill:#fff;}.cls-1,.cls-23,.cls-25{fill-rule:evenodd;}.cls-2{isolation:isolate;}.cls-3{fill:#ffc858;}.cls-4{fill:#cbe6e2;}.cls-10,.cls-11,.cls-15,.cls-21,.cls-22,.cls-32,.cls-33,.cls-41,.cls-5,.cls-6{fill:none;}.cls-11,.cls-32,.cls-33,.cls-5,.cls-6{stroke:#ffc858;}.cls-32,.cls-33,.cls-41,.cls-5,.cls-6{stroke-linecap:round;stroke-linejoin:round;}.cls-6{stroke-dasharray:8.15 8.15;}.cls-14,.cls-7{fill:#4c3e72;}.cls-7{opacity:0.61;}.cls-9{fill:#ebebec;}.cls-10{stroke:#fff;}.cls-10,.cls-11,.cls-15,.cls-21,.cls-22{stroke-miterlimit:10;}.cls-10,.cls-11,.cls-15{stroke-width:2px;}.cls-12{fill:#03ccb9;}.cls-13{fill:#1f2041;}.cls-15{stroke:#03ccb9;}.cls-16{fill:#7dc6bf;}.cls-17{fill:url(#Dégradé_sans_nom_19);}.cls-18{fill:url(#Dégradé_sans_nom_19-2);}.cls-19{fill:url(#Dégradé_sans_nom_8);}.cls-20{opacity:0.7;}.cls-21{stroke:url(#Dégradé_sans_nom_19-3);}.cls-22{stroke:url(#Dégradé_sans_nom_19-4);}.cls-24{mask:url(#mask);}.cls-25,.cls-27{fill:#ffbe9d;}.cls-26{fill:url(#Dégradé_sans_nom_20);}.cls-28{fill:url(#Dégradé_sans_nom_26);}.cls-29{fill:#eaeaea;}.cls-30{fill:#342a56;}.cls-31{fill:url(#Dégradé_sans_nom_26-2);}.cls-32,.cls-33{stroke-width:0.75px;}.cls-33{stroke-dasharray:2.03 2.03;}.cls-34{fill:#f2a181;}.cls-35{fill:url(#Dégradé_sans_nom_19-5);}.cls-36{fill:#ed997c;}.cls-37{fill:#3d2005;}.cls-38{fill:#db856e;}.cls-39{fill:#158c80;}.cls-40{fill:#5ab5e2;opacity:0.45;mix-blend-mode:multiply;}.cls-41{stroke:#a1d2f0;stroke-width:0.53px;}.cls-42{fill:#272144;}</style><linearGradient id="Dégradé_sans_nom_19" x1="29.5" y1="259.1" x2="104.84" y2="259.1" gradientUnits="userSpaceOnUse"><stop offset="0" stop-color="#4c3e72"></stop><stop offset="1" stop-color="#1f2041"></stop></linearGradient><linearGradient id="Dégradé_sans_nom_19-2" x1="460.85" y1="836.62" x2="541.3" y2="836.62" gradientTransform="matrix(0.99, 0.1, -0.1, 0.99, -315.48, -597.87)" xlink:href="#Dégradé_sans_nom_19"></linearGradient><linearGradient id="Dégradé_sans_nom_8" x1="59.74" y1="242.42" x2="159.36" y2="242.42" gradientUnits="userSpaceOnUse"><stop offset="0" stop-color="#ffc858"></stop><stop offset="1" stop-color="#4c3e72"></stop></linearGradient><linearGradient id="Dégradé_sans_nom_19-3" x1="101.44" y1="309.97" x2="163.81" y2="309.97" xlink:href="#Dégradé_sans_nom_19"></linearGradient><linearGradient id="Dégradé_sans_nom_19-4" x1="110.1" y1="331.79" x2="155.29" y2="331.79" xlink:href="#Dégradé_sans_nom_19"></linearGradient><mask id="mask" x="179.58" y="57.67" width="483.74" height="179.23" maskUnits="userSpaceOnUse"><g id="mask-2"><polygon class="cls-1" id="path-1" points="649.1 236.9 179.58 184.03 193.81 57.67 663.33 110.54 649.1 236.9"></polygon></g></mask><linearGradient id="Dégradé_sans_nom_20" x1="846.08" y1="2740.48" x2="882.96" y2="2740.48" gradientTransform="matrix(0.92, 0.38, -0.4, 0.89, 715.06, -2579.11)" gradientUnits="userSpaceOnUse"><stop offset="0.13" stop-color="#4c3e72"></stop><stop offset="0.75" stop-color="#03ccb9"></stop></linearGradient><linearGradient id="Dégradé_sans_nom_26" x1="12512.23" y1="180.71" x2="12556.15" y2="180.71" gradientTransform="matrix(-1, 0, 0, 1, 12961.93, 0)" gradientUnits="userSpaceOnUse"><stop offset="0" stop-color="#03ccb9"></stop><stop offset="1" stop-color="#4c3e72"></stop></linearGradient><linearGradient id="Dégradé_sans_nom_26-2" x1="12510.19" y1="185.75" x2="12562.15" y2="185.75" xlink:href="#Dégradé_sans_nom_26"></linearGradient><linearGradient id="Dégradé_sans_nom_19-5" x1="206.21" y1="244.56" x2="261.22" y2="244.56" xlink:href="#Dégradé_sans_nom_19"></linearGradient></defs><title>Illustration_2</title><g class="cls-2"><g id="Calque_2" data-name="Calque 2"><g id="Calque_1-2" data-name="Calque 1"><path class="cls-5" d="M368,81.82c-.09-1.3-.12-2.64-.1-4"></path><path class="cls-6" d="M368.75,69.72c3.57-19.93,19.11-41.69,50.44-43.37C443.58,25,455.85,44.83,472.1,55.14c12,7.65,27.39,12.35,35.8,25.63,19.39,30.62,16.48,70.65-4,88.87-10.85,9.62-41.81,16.07-60.76,15.8"></path><path class="cls-5" d="M439,185.26c-1.43-.11-2.76-.27-4-.48"></path><rect class="cls-7" x="303.3" y="61.11" width="145.06" height="145.06" transform="translate(82.81 -137) rotate(23.15)"></rect><path class="cls-8" d="M396.81,245.85H125.75V83.59H396.81Zm-263.48-7.58h255.9V91.17H133.33Z"></path><rect class="cls-9" x="133.33" y="91.17" width="255.9" height="147.1"></rect><line class="cls-10" x1="219.5" y1="91.17" x2="219.5" y2="238.27"></line><line class="cls-10" x1="309.26" y1="91.17" x2="309.26" y2="238.27"></line><rect class="cls-11" x="166.44" y="128.63" width="15.52" height="10.48" transform="translate(-14.02 20.55) rotate(-6.49)"></rect><rect class="cls-12" x="171.99" y="150.48" width="15.52" height="10.48" transform="translate(17.4 -18.07) rotate(6.05)"></rect><rect class="cls-13" x="163.68" y="174.93" width="15.52" height="10.48" transform="translate(-19.27 20.54) rotate(-6.49)"></rect><rect class="cls-13" x="248.86" y="122.75" width="15.52" height="10.48" transform="translate(14.91 -26.32) rotate(6.05)"></rect><rect class="cls-14" x="248.86" y="155.32" width="15.52" height="10.48" transform="translate(18.34 -26.14) rotate(6.05)"></rect><rect class="cls-14" x="269.43" y="133.47" width="15.52" height="10.48"></rect><rect class="cls-11" x="340.1" y="124.04" width="15.52" height="10.48"></rect><rect class="cls-15" x="345.1" y="149.33" width="15.52" height="10.48" transform="translate(35.96 -64.47) rotate(11)"></rect><rect class="cls-13" x="347.86" y="142.71" width="15.52" height="10.48" transform="translate(17.56 -36.64) rotate(6.05)"></rect><path class="cls-16" d="M93.37,348.86c0,2,15.67,3.7,35,3.7s35-1.66,35-3.7-15.67-3.7-35-3.7S93.37,346.82,93.37,348.86Z"></path><path class="cls-17" d="M96.25,273.22a1.12,1.12,0,0,0,.16.49,3.2,3.2,0,0,1-.55-1,81.49,81.49,0,0,0-6.08-7.14l-1.34-1.34c-1.48,0-4.67.93-5.59,1-1.9.1-4.3.31-6.12-.29-.76-.24-2.79-1.31-2.37-2.41.48-1.26,4.14-.5,5-.31a54.18,54.18,0,0,0,6,1.4,18.34,18.34,0,0,1,2.79.34,71,71,0,0,0-6.38-5.51c-1.44,0-4.74.93-5.68,1-1.9.09-4.3.3-6.12-.29-.76-.25-2.78-1.31-2.37-2.42s4.14-.5,5.05-.3a57.92,57.92,0,0,0,6,1.4,16.67,16.67,0,0,1,2.75.33,60.6,60.6,0,0,0-7.46-4.84,55.69,55.69,0,0,0-5.5-2.66c-1.48.67-3.4,1.78-4.09,2-1.81.59-4.07,1.43-6,1.34-.8,0-3-.53-2.91-1.71.13-1.33,3.87-1.58,4.79-1.62a56.72,56.72,0,0,0,6.12-.23l1.09-.2a59.64,59.64,0,0,0-7.84-2.52c-.57.38-1.22.67-1.83,1a49,49,0,0,0-4.28,3.06c-.65.45-3.32,2.25-4.08,1.41s.59-2.24,1.11-2.69a16,16,0,0,1,4.75-2.23c.56-.19,2.25-.43,3.57-.72-1.26-.3-2.52-.56-3.8-.77a57.35,57.35,0,0,0-6.13-.63,13.64,13.64,0,0,1-2.23,1.29,47.57,47.57,0,0,0-4.28,3.06c-.66.45-3.32,2.25-4.09,1.41s.59-2.24,1.11-2.69A16.09,16.09,0,0,1,44.15,247c.64-.23,2.82-.5,4.17-.87a53.75,53.75,0,0,0-8.22.27,19.42,19.42,0,0,1-2,1,45.11,45.11,0,0,0-4.34,3c-.66.43-3.36,2.18-4.11,1.32s.63-2.23,1.17-2.66a15.79,15.79,0,0,1,4.79-2.14,6.86,6.86,0,0,1,1-.21c1.36-.38,2.75-.7,4.14-1l.11-.08a.73.73,0,0,0-.09.08,46.31,46.31,0,0,1,5.77-.66c-.66-.23-1.28-.59-1.91-.88a45.19,45.19,0,0,0-5-1.58c-.74-.25-3.76-1.3-3.56-2.43s2.12-.89,2.78-.74a15.48,15.48,0,0,1,4.62,2.46c.65.43,2.56,2.45,3.64,3.14a49.74,49.74,0,0,1,5.46.08,14,14,0,0,1-2.12-1.34,48.62,48.62,0,0,0-4.68-2.34c-.7-.36-3.52-1.87-3.15-2.95s2.23-.55,2.86-.3a15.85,15.85,0,0,1,4.19,3.15c.61.56,2.36,3.11,3.29,3.82.73.06,1.47.13,2.2.22a53.32,53.32,0,0,1,9,1.92c-.28-.42-.54-.86-.82-1.28A47.58,47.58,0,0,0,60,242c-.51-.6-2.53-3.1-1.78-3.95s2.27.35,2.76.83a15.92,15.92,0,0,1,2.65,4.55c.28.6.75,2.7,1.23,4a54.87,54.87,0,0,1,8.26,3.38c-.36-.48-.71-1-1.07-1.37-.92-1-1.86-2.05-2.87-3a23.3,23.3,0,0,0-5.23-3.78,1.12,1.12,0,0,1,.37-2.11h.13c1.79-.11,3.28,1.28,4.51,2.58.94,1,6.06,6.35,5.88,8.57a61,61,0,0,1,8.49,5.73c-1-1.4-2.23-2.54-3.31-3.84-.51-.61-2.53-3.11-1.78-4s2.27.36,2.75.84a15.73,15.73,0,0,1,2.65,4.54c.25.55.66,2.29,1.08,3.59a63.08,63.08,0,0,1,5.85,5.71c-.1-.33-.2-.66-.31-1a48,48,0,0,0-2.32-4.72c-.34-.71-1.68-3.64-.74-4.29s2.1.92,2.45,1.51A15.85,15.85,0,0,1,91.06,261c.12.66.06,2.81.2,4.21q2.05,2.35,3.88,4.89c-.48-1.48-1.22-2.87-1.77-4.33C93.08,265,92,262,93,261.4s2,1.09,2.32,1.7a15.67,15.67,0,0,1,1,5.18c.06.54-.08,2-.12,3.34,2.19,3.25,7,5.19,8.63,8.76C103.12,277.38,98.3,276,96.25,273.22Z"></path><path class="cls-18" d="M124.09,299.82a1.07,1.07,0,0,0,.24.46,3.44,3.44,0,0,1-.72-.89,80.29,80.29,0,0,0-7.27-5.92c-.52-.37-1-.72-1.57-1.08-1.45.3-4.43,1.77-5.32,2-1.85.44-4.17,1.08-6.07.83-.8-.11-3-.78-2.77-1.95s4-1.25,4.9-1.22a54.64,54.64,0,0,0,6.12.3,18.89,18.89,0,0,1,2.8-.18,70.61,70.61,0,0,0-7.28-4.26c-1.41.26-4.49,1.78-5.4,2-1.85.43-4.17,1.08-6.08.83-.79-.11-3-.79-2.76-2,.24-1.32,4-1.25,4.9-1.22a54.64,54.64,0,0,0,6.12.3,17.26,17.26,0,0,1,2.77-.18,63.09,63.09,0,0,0-8.21-3.4,57.83,57.83,0,0,0-5.9-1.61c-1.34.92-3,2.37-3.66,2.71-1.67.92-3.74,2.15-5.65,2.41-.79.11-3.07,0-3.17-1.15s3.52-2.25,4.42-2.47a55,55,0,0,0,6-1.33l1-.4a58.94,58.94,0,0,0-8.16-1.05c-.5.48-1.08.88-1.62,1.32a46.53,46.53,0,0,0-3.65,3.78c-.56.57-2.86,2.82-3.76,2.13s.17-2.31.6-2.84a15.81,15.81,0,0,1,4.27-3.06c.51-.29,2.13-.83,3.38-1.36-1.29-.06-2.59-.09-3.88-.06a57.89,57.89,0,0,0-6.15.49,12.67,12.67,0,0,1-1.95,1.68A46.84,46.84,0,0,0,67,287.25c-.55.56-2.85,2.81-3.76,2.12s.17-2.31.61-2.84a15.72,15.72,0,0,1,4.27-3.06c.59-.34,2.68-1,3.94-1.62a54.42,54.42,0,0,0-8,1.76A19.52,19.52,0,0,1,62.24,285a48.36,48.36,0,0,0-3.72,3.72c-.57.55-2.91,2.76-3.81,2.05s.22-2.31.66-2.83a15.84,15.84,0,0,1,4.33-3c.19-.1.53-.23.94-.39,1.27-.62,2.58-1.18,3.91-1.68l.08-.1s0,.06-.07.1a46.76,46.76,0,0,1,5.55-1.7c-.68-.11-1.36-.35-2-.52a44.87,44.87,0,0,0-5.19-.65c-.78-.11-3.94-.59-4-1.74s1.92-1.26,2.6-1.23a15.38,15.38,0,0,1,5,1.58c.72.3,3,1.94,4.16,2.43a46.33,46.33,0,0,1,5.37-.92,13.12,13.12,0,0,1-2.32-.94,48.17,48.17,0,0,0-5-1.44c-.75-.23-3.8-1.2-3.64-2.33s2.1-.95,2.77-.82a15.69,15.69,0,0,1,4.68,2.34c.7.44,2.89,2.63,3.93,3.16.74-.08,1.47-.15,2.21-.19a53.48,53.48,0,0,1,9.21.25c-.36-.36-.69-.74-1-1.1a45,45,0,0,0-4.09-3.3c-.6-.5-3-2.58-2.46-3.56s2.29-.07,2.86.32a15.82,15.82,0,0,1,3.43,4c.39.55,1.23,2.52,1.94,3.73a56.53,56.53,0,0,1,8.74,1.82c-.44-.39-.88-.8-1.31-1.14-1.08-.86-2.2-1.68-3.36-2.43a23.59,23.59,0,0,0-5.83-2.76,1.12,1.12,0,0,1,0-2.14l.13,0c1.74-.42,3.45.66,4.9,1.72,1.1.81,7.12,5.14,7.35,7.36a60.63,60.63,0,0,1,9.39,4.09c-1.2-1.2-2.66-2.09-4-3.18-.6-.5-3-2.59-2.46-3.57s2.29-.06,2.86.33a15.69,15.69,0,0,1,3.43,4c.35.49,1.06,2.12,1.71,3.33a63.29,63.29,0,0,1,6.79,4.55c-.16-.3-.31-.61-.48-.9a49.22,49.22,0,0,0-3.14-4.23c-.47-.64-2.32-3.27-1.51-4.08s2.24.53,2.69,1a16,16,0,0,1,2.34,4.73c.24.63.57,2.75,1,4.11q2.44,1.94,4.7,4.1c-.73-1.37-1.72-2.61-2.53-3.94-.41-.68-2-3.45-1.18-4.19s2.19.7,2.6,1.25a16,16,0,0,1,2,4.9c.15.52.29,2,.48,3.3,2.75,2.8,7.86,2.58,10.08,5.8C131.59,301.41,126.61,302.16,124.09,299.82Z"></path><path class="cls-19" d="M128.92,304.47c-.08.08.36-9.25-10.4-17-10.93-8.25-35.21-8-38-15.76-2.9-8.32,12.23-5.89,19-11.71s9.19-8.71.12-10.86c-9-2-14.5-2.95-14.21-10.49s-14.81-4.46-22.12-10.3c-7.55-5.84-3.05-13.18,11.58-12.25,14.36,1.27,15-1.09,10.89-3.45s-16.47-6.58-11-10.31c5.62-3.76,13.5,0,9.42-5s-14-9-8.89-14.19,17.68-4.32,24.37,10c6.53,14.3,8.74,18.31,15.62,20.08,6.71,1.83,13.38-5.27,21.6-2s6.31,11.27,1.2,16.36-14,15.26-9.09,20.11c4.75,4.88,11-1.87,18.23-2.87,8.05-1.12,16.9,6,9,16.73-8.18,10.52-20.47,17.95-21.6,42.9C132.78,303.63,130.85,305.23,128.92,304.47Z"></path><path class="cls-13" d="M137.37,215.68a.43.43,0,1,0-.51-.69,171.4,171.4,0,0,0-23.58,21.43c-.66-1.65-1.33-3.26-2-4.83a.43.43,0,0,0-.17-.38c-3.15-7.39-6.29-13.83-9.28-19.39a.42.42,0,0,0-.17-.38l0,0c-10.5-19.46-19-27.89-19.17-28.06a.43.43,0,0,0-.6.62c.17.16,8.19,8.13,18.27,26.46a49,49,0,0,0-22.44-6.82.43.43,0,0,0-.44.42.44.44,0,0,0,.43.44c.12,0,12.67.26,23.31,7.55,2.9,5.38,6,11.61,9,18.74-19.86-7.51-41.56-7.71-41.78-7.71a.4.4,0,0,0-.43.42.42.42,0,0,0,.42.43c.22,0,22.34.21,42.25,8a321,321,0,0,1,14.86,44c-13.92-6-36.2-6.86-36.42-6.87a.43.43,0,0,0-.45.41.44.44,0,0,0,.42.45c.23,0,23,.85,36.72,7.07,2.19,8.41,4.25,17.47,6.09,27.22a.43.43,0,0,0,.46.35h0a.42.42,0,0,0,.34-.5c-1.85-9.81-3.92-18.93-6.13-27.4a.42.42,0,0,0,0-.15,332.33,332.33,0,0,0-12.72-39.11A170.22,170.22,0,0,1,137.37,215.68Z"></path><g class="cls-20"><path class="cls-13" d="M127.54,283.07a.44.44,0,0,1-.19,0,.43.43,0,0,1-.25-.55c6.27-17.06,22.76-30.47,22.92-30.6a.43.43,0,1,1,.54.67c-.16.13-16.47,13.4-22.66,30.23A.44.44,0,0,1,127.54,283.07Z"></path></g><rect class="cls-21" x="101.94" y="304.47" width="61.37" height="10.99"></rect><polygon class="cls-22" points="154.68 315.46 148.3 348.11 118.53 348.11 110.73 315.46 154.68 315.46"></polygon><path class="cls-3" d="M392.32,214.07a4.78,4.78,0,0,0-3.89-4.79V207.5H378.18s0,11.14,0,12.34a1.51,1.51,0,0,0,1.22,1.42s7.36.11,8.07,0,1-1.38,1-1.38V219A4.8,4.8,0,0,0,392.32,214.07Zm-3.89,3.57v-7a3.43,3.43,0,0,1,2.6,3.48A3.47,3.47,0,0,1,388.43,217.64Z"></path><path class="cls-23" id="Fill-15" d="M430.78,139.24l-.67,5.94a4,4,0,0,0,.6,0,4.08,4.08,0,0,0,2.48-.91,4.16,4.16,0,0,0,1.55-2.8l.53-4.75-1.18-.13a3,3,0,0,1-3.31,2.63"></path><g class="cls-24"><path class="cls-25" id="Fill-46" d="M413.17,130l-1.33,6.47.06.06c1.51.34,3.44.74,5.81,1.2,7.66,1.46,7.2.21,7.93-.91.13-1.19,1.59-8.85,2.39-10.56a7.17,7.17,0,0,1-4.95,1.25c-3-.34-7.59-2.06-8.85-1.6s-1.06,4.09-1.06,4.09"></path></g><g class="cls-24"><path class="cls-25" id="Fill-48" d="M419,153l-.2,1.78c-.6,5.35,10.16,6,10.69,1.21l-.14-1.78,1-8.91v-.05c-.19,0-.05,0-.25,0l.67-5.94a3,3,0,1,0,.38-6,3.08,3.08,0,0,0-3,2.78l-.8,7.09a6.49,6.49,0,0,1-7.17,5.72l-.68-.08-.07.6Z"></path></g><path class="cls-26" d="M417.13,158.45c1.86,5.09-6.13,28.72-6.42,29.62s13,17.83,13,17.83l-3.7,1.7s-16.69-12.41-18.29-17.76c-1.36-4.54,4.32-34,4.32-34S414,150,417.13,158.45Z"></path><ellipse class="cls-16" cx="429.48" cy="332.02" rx="57.13" ry="3.91"></ellipse><path class="cls-27" d="M465,311.2a34.83,34.83,0,0,0,2.35,4c.78.95,4.2-1.21,4.22-2s-3-5.52-3-5.52"></path><path class="cls-3" d="M473.05,313.48c.74,1,1.95,3.12,1.95,3.12l-3,2.76-.79-.34a6.59,6.59,0,0,1-1.41,2.23,15.5,15.5,0,0,1-3.12,2.13c-3,1.4-5.52,1.61-5.86,1.25-1.44-1.51,2.54-3.4,3.28-3.9a5.56,5.56,0,0,0,2.5-5.2c-.16-1-.46-1.07.09-1.22a1.33,1.33,0,0,1,1,.1,2.46,2.46,0,0,0,2.77-.29,2.73,2.73,0,0,0,.88-1.47A1.7,1.7,0,0,1,473.05,313.48Z"></path><path class="cls-27" d="M408.75,321.54a8.87,8.87,0,0,0-.66,3.07c.1,1.22,4.16,1.32,4.63.68s.71-6.24.71-6.24"></path><path class="cls-3" d="M413.79,326.37a25,25,0,0,1-.37,3.35h-4.68l-.23-.75a7.52,7.52,0,0,1-2.71.75h-3.94c-2.89,0-4.54-.36-4.61-.84-.3-2,3.15-1.95,4.05-1.95,2.58,0,5.37-1.16,6-2.41.45-.91.25-1.14.78-1a1.34,1.34,0,0,1,.81.66,2.39,2.39,0,0,0,2.44,1.28,2.87,2.87,0,0,0,1.58-.74A1.65,1.65,0,0,1,413.79,326.37Z"></path><path class="cls-14" d="M432.59,236.6c0,.17-3.82-4.18-3.86-4-1.51,7.6-8.52,33-10.85,39.69h0a7,7,0,0,1-3.63,3.33c-3.43.89-8.89-.28-9.33-6.83-.06-.72.11-1.51,0-2.37-1-10.09,8.67-54.57,8.92-57.41s5.81-.79,7.37-1.31C429,205.13,434.63,226,432.59,236.6Z"></path><path class="cls-14" d="M418.33,275.9c-1.58-4.73.82-10.28.82-10.28s-13.46-10.35-14.14-4c-.07.5-.57,4.78-.57,7.19,0,8.63,3,36,2.79,52.68v1.09a33.17,33.17,0,0,0,6.19.41,5.33,5.33,0,0,0,.56,0c1.13-10.39,3.56-24.54,4.71-38.76A32.43,32.43,0,0,0,418.33,275.9Z"></path><path class="cls-14" d="M452.66,273.77c-2.69-3.35-5.53-4.84-6.37-7.39-2-5.93-1.43-30-1.61-36.63.55-1.37,5.74-15-4.79-25.06,0,0-9.46,4.06-17,4.55a39.24,39.24,0,0,1-9-.21s5.63,8.5,6,12.27c.56,6.4,12.52,45.05,13.43,47.17a25.32,25.32,0,0,0,5.14,7.71c5.3,6.9,17.72,21.41,27.13,35.31l.63.9a26.14,26.14,0,0,0,5.41-3.06C466.5,300.07,461.2,284.37,452.66,273.77Z"></path><path class="cls-28" d="M406.37,155.35c1.52-1.75,7-4.25,13.26-5h.11c-.78.26.44,1.23.54,2.31.08.85.28,1.65,1,1.85.4.12,5.75-.44,6.16-.43,1,0,.25-3.56,1.77-3.64a3.13,3.13,0,0,0-.42,0c7.36.66,19,2.41,20.39,5.39.86,1.89.77,19.81-.48,26.48-1,5-3.81,17.9-3.81,20.9s1.61,4.28.86,5.15c-1.68,2-14.26,2.82-19.66,2.82-4.81,0-13-1.28-13.41-2.82-.62-2.29.94-2.2,1.15-4.6s1.34-18.21-.06-20.5c-2.24-3.65-5.63-14-5.81-16.74S404.48,157.51,406.37,155.35Z"></path><path class="cls-29" d="M430.08,147.79a13.85,13.85,0,0,1,3,3.05,28.52,28.52,0,0,1-7.36,9.14,12.87,12.87,0,0,0-4.5-5.62S429.28,152.7,430.08,147.79Z"></path><path class="cls-29" d="M421.24,154.36a9.54,9.54,0,0,0-4.4,4.19,21.18,21.18,0,0,1,.59-7.77s1.49-2.5,2.12-2.55C419.29,151.19,421.24,154.36,421.24,154.36Z"></path><path class="cls-30" d="M418.33,275.9a10.92,10.92,0,0,1-.53-3.41c0-.06.06-.13.08-.18h0c1.57-4.49,5.25-17.45,8-27.77l-4.2-14.95s-2.54,30.42-3.38,32.61-3.42,9.21-3.17,10.72,1.89,4.29,1.64,6.69-.22,23.89-.22,24c.83-6.22,1.65-12.81,2.18-19.43A32.43,32.43,0,0,0,418.33,275.9Z"></path><path class="cls-27" d="M404.22,211.75s-2.61-.05-4-.1c-.87,0-4.51-1.69-6.9-1.92a5.3,5.3,0,0,0-3.37.52,2.2,2.2,0,0,0-.81,3c.2.26.5.53.43.85a1.41,1.41,0,0,1-.26.42,1.29,1.29,0,0,0,1.3,2,2.18,2.18,0,0,0,1.26,2.61,1.75,1.75,0,0,1,1.09-1.29,3.57,3.57,0,0,1,1.67.2,4.52,4.52,0,0,0,2.92-.36c.63-.32,1.18-.79,1.79-1.16a6.67,6.67,0,0,1,4.2-.94"></path><path class="cls-14" d="M449.14,155.76a1.86,1.86,0,0,0-.31-.46l-11.57,11.32C434.5,174,429,193.29,429,193.29s-5.21,2.45-8.71,4.26c-.89.46-3.39,2.15-6.35,4.2-.06.88-.12,1.58-.15,1.94-.21,2.4-.54,2.38.08,4.67a46.18,46.18,0,0,1-1,6c8.7-2.22,26.65-7.85,27.33-8.22,1-.55,6.31-21.81,9.37-34.72C450.06,163.6,449.77,157.14,449.14,155.76Z"></path><path class="cls-31" d="M437.19,165.39c-1.07,3.06-6.75,30.05-6.75,30.05a52.13,52.13,0,0,0-9.06,3.21c-2.71,1.41-21.6,13.14-21.6,13.14l1.88,4.43s33.63-11.92,35.1-12.72,15-34.88,15-41c0-3.58-2.9-7.25-2.9-7.25"></path><path class="cls-23" id="Fill-13" d="M412.76,139c-.47,4.15,5,3.57,5.35.6Zm12.88-2.16c.13-1.19,1.59-8.85,2.39-10.56a7.17,7.17,0,0,1-4.95,1.25c-3-.34-7.59-2.06-8.85-1.6s-1.06,4.09-1.06,4.09l-1.19-.13c-6.53-.74-2.36-11.1,1.21-10.69,1.06-4.1,9.44-3.75,12.08-.45.4-3.56,6,.08,5.74,2.45,3.56.4,5.67,3,5.33,6l-1.07,9.5-1.18-.13a3,3,0,0,0-2.93-3.33,3.08,3.08,0,0,0-3,2.78l-.8,7.09a6.49,6.49,0,0,1-7.17,5.72l-.68-.08-6.51-.73a3.52,3.52,0,0,1-3-4.48c.82-2.75,1.77-6.05,1.91-7,1.51.34,3.44.74,5.81,1.2C425.37,139.23,424.91,138,425.64,136.86Z"></path><path class="cls-32" d="M384.22,205.92a4.7,4.7,0,0,1-.83-.57"></path><path class="cls-33" d="M382.19,203.73a3.28,3.28,0,0,1-.25-1.28,2.81,2.81,0,0,1,2.71-2.81c1.45.08,2.55,2,1.7,3.15a1.7,1.7,0,1,1-1.21-3.18c.66-.24,1.48-.07,2.05-.48a1.91,1.91,0,0,0,.65-1.47,4.49,4.49,0,0,0-3.84-4.53,3,3,0,0,0-2.58.84,1.88,1.88,0,0,0,0,2.54c.88.81,2.46.22,3-.86a4,4,0,0,0-.34-3.46A15,15,0,0,1,383,190a2.3,2.3,0,0,1,.41-2.31c.95-.93,2.86-.54,3.49-1.71.53-1-.35-2.09-1.06-3a3.93,3.93,0,0,1-.64-1.11"></path><path class="cls-32" d="M385,180.89a1.09,1.09,0,0,1,.5-.82"></path><path class="cls-12" d="M168.84,237.09h-4s-1.43,6.37,1.2,11.75h12.39s-3.24-8-1.59-11.75Z"></path><path class="cls-27" d="M190.64,211.8s-10.52,6.9-14.7,14.73c-3.14,5.86-5.48,7.57-6.45,8.07a4.11,4.11,0,0,0-1.27,1,3.49,3.49,0,0,0-.75,1.16.29.29,0,0,0,.27.39h.64a.38.38,0,0,0,.36-.29c.06-.3.21-.71.59-.64.58.1.16,5.08.16,5.08s-.09,1.33.5,1.06.53-1.2.53-1.2-.05-1.75.33-1.67,4.17.89,4-1.23,2-4.85,2-4.85,2.53-4,9.24-7.14,13.47-11.47,13.47-11.47l-6.09-4.95Z"></path><path class="cls-27" d="M280,148.88c.1,3.15-1.23,22.63-2.8,26s-1.47,2.06-1.47,2.06l-7.29-3.52s6.48-17.8,7.58-21.06a2,2,0,0,0,.09-.33c.14-.76.62-3.9.7-5.13a4.64,4.64,0,0,0-.29-2.25,16.81,16.81,0,0,1-1.05-2,5.38,5.38,0,0,1,0-1.75c.12-.28.74-1,1-.92s.2-.67.53-.77a.73.73,0,0,1,.86.31c.15.29.59.14.74.32s.88.37,1,.49.35-.07.62.28.16.4.28.57.52.06.64.43a4.2,4.2,0,0,1,.06,1.35,3.69,3.69,0,0,1-.39,1.9c-.19.31-.86.68-.88,1.31Z"></path><ellipse class="cls-16" cx="238.46" cy="352.84" rx="36.12" ry="3"></ellipse><path class="cls-27" d="M229.86,242.79l-14.55-12.27s-6.76,9.18-4.22,18c1.26,4.36,2.83,6.52,3.52,8.58s5,29.26,4.69,31.26-2.68,7.59-3.58,13.47c-1.08,7.07-.89,30.11-1.73,36.22s4.8,7.14,5.11,5.07c2.66-17.66,9.66-45.19,10.64-54S230.32,264.14,229.86,242.79Z"></path><path class="cls-34" d="M229.9,260.2l-6.32,14.51A32.7,32.7,0,0,1,228,289.93c.11,2.8-.14,5.6-.06,8.41a2.47,2.47,0,0,0,.08.6c.85-4.15,1.48-7.57,1.73-9.8.69-6.24.69-16.15.47-29C230.11,260.19,230,260.18,229.9,260.2Z"></path><path class="cls-27" d="M220.08,337.49s-1.35,6.41-1,7.22,1.68,3.2,3,4.05,4.53,2,4.78,2.37a1,1,0,0,1-.18,1.3,6.42,6.42,0,0,1-4.45,1.13c-4.23-.7-4.66-2.57-7.13-2.87-.42-.05-1.21.58-2.39,0A2.78,2.78,0,0,1,211.1,348a12,12,0,0,1,1.87-4.53c.7-1.31,1.2-7.28,1.2-7.28"></path><path class="cls-30" d="M227,352.74c.31-.52.38-1.32.1-1.52a25.77,25.77,0,0,0-2.64-1.58c-.82-.38-2.12-.71-1.66-.46s-.38,1.17-1.15,1.12c-2.65-.16-4.61-1.92-6.12-2.3-2.17-.54-3.09-3.12-3.18-3.53a10.33,10.33,0,0,0-1.57,3,5.27,5.27,0,0,0-.32,2.28,5.21,5.21,0,0,1,.24,2.17,4.22,4.22,0,0,0,1.57.57,6.45,6.45,0,0,0,1.68,0l.19-1.37a6.58,6.58,0,0,1,1.35.13,7.34,7.34,0,0,1,2.06,1c.3.36.54,1,.94,1.22a8.39,8.39,0,0,0,3.48.86C224.85,354.47,226.51,353.64,227,352.74Z"></path><path class="cls-27" d="M263.6,338.53c-.31-.35-3.68-.89-5.26-1.55a9.17,9.17,0,0,1-3.69-3.51c-.35-.86-.27-5.21-.23-7,.32-12.58,2.64-43.31,3-50.67.58-12.79-1.08-26-6-46.54l-18.33-14.06s-5.13,9.54-3.41,18.66c1,5.3,5.39,6.11,6.13,8.17s11.83,35.23,11.83,35.23a62.17,62.17,0,0,0-2.28,15c-.11,6.71,2.93,26.94,3.5,34.65.06,1.5.32,5.11-.12,6.26-.55,1.4-1.93,3.05-1.86,4.83a2.72,2.72,0,0,0,2.08,2.41c1.3.4,2-.35,2.47-.36,2.58-.11,3.3,1.66,7.76,1.66a7.06,7.06,0,0,0,4.43-1.84A.94.94,0,0,0,263.6,338.53Z"></path><path class="cls-30" d="M264,340.1c.25-.57.21-1.37-.11-1.52a26.38,26.38,0,0,0-2.94-1.13c-.9-.24-2.29-.36-1.78-.19s-.23,1.23-1,1.3c-2.76.28-5-1.14-6.63-1.27-2.33-.18-3.18-2.58-3.34-3a10.62,10.62,0,0,0-1.65,3.2,5.15,5.15,0,0,0,0,2.31,5,5,0,0,1,.56,2.11,4.54,4.54,0,0,0,1.7.3,6.75,6.75,0,0,0,1.74-.25V340.6a6.78,6.78,0,0,1,1.41-.09,4.59,4.59,0,0,1,2.27.81c.38.28.78.76,1.23.87a9.28,9.28,0,0,0,3.62.28C262,342.17,263.57,341.08,264,340.1Z"></path><path class="cls-35" d="M214.41,219.81s-7.89,26.25-8.2,41.35,57.11,6.19,55-2.52-11-37-11-37Z"></path><path class="cls-3" d="M191.09,209.78a14.42,14.42,0,0,0,4.8-9.6c.64-6.4,9.71-24.38,17.75-28,8.73-3.9,13.42-5.46,32.73,0,0,0,20.65,5,21.84.14l8.13,4.66s-1.38,12.79-9.22,12.54-11.28-1.32-13.81,1.34-4.14,4.66-2.55,9.82,8.23,16.86.4,21.32h-35.8s-8.82.4-6.25-12c0,0,.4-7.44-2.08-2.28s-7.73,8.43-7.73,8.43S192.1,214.11,191.09,209.78Z"></path><path class="cls-27" d="M240.63,144.37c2.35,3,1.89,7.34,1.31,11.14-.3,1.92-.59,3.85-.88,5.77a3.88,3.88,0,0,1-1,2.5,3.83,3.83,0,0,1-2.67.55c0,1.59,0,3.18,0,4.77q-4.08.1-8.17,0a7.9,7.9,0,0,0-.7-3.24c-1.33,0-2.22-1.36-2.75-2.59a36.72,36.72,0,0,1-1.46-4.37,24.13,24.13,0,0,1-1.15-6,8.64,8.64,0,0,1,1.72-5.73,10.4,10.4,0,0,1,3.32-2.48c1.69-.88,3.72-1.58,5.46-.81"></path><path class="cls-13" d="M237.81,158.89a5,5,0,0,1,.23-3.57,2.37,2.37,0,0,1,.71-.91,1.55,1.55,0,0,1,1.46-.15,1.62,1.62,0,0,1,.73.69,20.78,20.78,0,0,0,.51-6.68,8.67,8.67,0,0,0-5.5-7.55c-5.77-2.37-14.06,0-16.4,5.63a14,14,0,0,0,2.51,14c3,3.17,7.32,3.64,11.3,3,2-.33,5.09,2.06,6.14-.71.08-.21,0-1.78-.65-2.06A2.06,2.06,0,0,1,237.81,158.89Z"></path><path class="cls-13" d="M238.26,151.36c.21.34.16.79.36,1.13a2.65,2.65,0,0,0,1.4,1.07c1,.45.75,1.88.72,2.52.74-.5.86-1.83,1-2.51s.33-1.55.56-2.3a11.43,11.43,0,0,0,.65-2.21,9.05,9.05,0,0,0-3.46-7.32,4.83,4.83,0,0,0-5.4.07,4.2,4.2,0,0,0-1.54,2,1.29,1.29,0,0,0-.06,1"></path><path class="cls-13" d="M243.64,184.33c-.16,2.88-1.95,6.49-9.12,3.94a35.93,35.93,0,0,0-4.67-1.71,15.54,15.54,0,0,0-8.62,1.25c-3.75,1.52-11.76,4-14.72-.89l-.12-.2a9.51,9.51,0,0,1,2-11.95,24.29,24.29,0,0,0,7.32-12.3c1.92-7.29,2.83-12.51,3.4-14.76.17-.66,1.32-.94,1.93-.62,2.6,1.33,12.09,4.48,18.5,15.45,0,0-1.42,6.84.94,12.49A62.78,62.78,0,0,1,243.64,184.33Z"></path><path class="cls-13" d="M282.71,259.44l.87-3.54s-5.34-2.65-10.69-1.49l-2.7,11s7.84-1.12,10.77,1.15Z"></path><path class="cls-16" d="M287.86,370.54c0,1.57,10.89,2.87,31.1,2.91S361,372.24,361,370.67s-16.37-2.87-36.59-2.91S287.86,369,287.86,370.54Z"></path><path class="cls-36" d="M284.52,243.55s-3.58,4.15-4.24,4.39c-.4.15-3.14.66-4,.82a3.43,3.43,0,0,0-1,.28,3,3,0,0,0-.81.66,23.73,23.73,0,0,0-1.87,2.25,3.41,3.41,0,0,0-.43.64,4.25,4.25,0,0,0-.28.9q-.58,2.64-1,5.31a.53.53,0,0,0,0,.28c.1.2.41.15.58,0s.31-.36.52-.43c0,.15,0,.3,0,.45a1.06,1.06,0,0,0,1-.14,8.27,8.27,0,0,0,3.12-3,3.08,3.08,0,0,1,.5-.72c.55-.55,1.41-.54,2.16-.73a11.89,11.89,0,0,0,2-.65c1.16-.53,1.31-1.93,1.42-2.19a1.13,1.13,0,0,1,.3-.36c.76-.68,3.79-3,3.79-3"></path><path class="cls-37" d="M326.58,154.41c-1.69.48-2.59,2.66-3.16,4.14a23.44,23.44,0,0,0-1.27,5.6,7.6,7.6,0,0,0,.27,3.94,7.94,7.94,0,0,0,1.09,1.72,4,4,0,0,0,.79.84,1.24,1.24,0,0,0,1.1.18c.53-.2.74-.81.89-1.36a35.71,35.71,0,0,1,4-10.18"></path><path class="cls-38" d="M324.69,165.61c0-1.13-1.22-1.87-2.25-.7-.85,1-1.08,2.79-1.13,4.15-.06,1.62,1.2,1.94,2.23,2.17"></path><path class="cls-36" d="M312.09,357.8a36.15,36.15,0,0,0,.21,4.68c.24,1.23,4.19.84,4.57.14s-.08-6.41-.08-6.41"></path><path class="cls-39" d="M318,363.8c.11,1.3.1,3.74.1,3.74l-4.06,1-.51-.69a7.16,7.16,0,0,1-2.38,1.3,15.9,15.9,0,0,1-3.83.36c-3.35-.23-5.65-1.28-5.77-1.77-.47-2,4-1.78,4.88-1.85a5.9,5.9,0,0,0,4.87-3.41c.37-1,.15-1.18.7-1.05a1.34,1.34,0,0,1,.86.61,2.44,2.44,0,0,0,2.57,1.1,2.9,2.9,0,0,0,1.53-.88A1.67,1.67,0,0,1,318,363.8Z"></path><path class="cls-30" d="M319.9,315.39c-.37-6.07,4.55-14.19,4.55-14.19s-13.23-7.3-13.43-9.56c0,0-1.83,12.49-2.49,16.9-1.14,7.65,2.6,51.34,2.6,51.34a15.8,15.8,0,0,0,6.45.1s.72-16.87,3.5-28.3C322.4,326.27,320.36,316.89,319.9,315.39Z"></path><path class="cls-30" d="M321.09,245.38c-5,11.09-10.45,46.88-11.77,59.24-.56,5.24,3.8,11.38,8.89,6.66,6.07-5.65,14.66-31.55,17.71-36.12s14.48-8.74,6.73-32"></path><path class="cls-36" d="M343.22,358.07s.44,4.87.61,6.11,4.14,1.07,4.56.4.28-6.41.28-6.41"></path><path class="cls-39" d="M349.51,365.6a25.5,25.5,0,0,1-.14,3.44l-4.56.3-.28-.75a7.24,7.24,0,0,1-2.59.94l-3.86.25c-2.82.18-4.45-.07-4.55-.56-.43-2.06,2.94-2.19,3.82-2.24,2.52-.17,5.17-1.53,5.68-2.85.38-.95.17-1.17.7-1a1.35,1.35,0,0,1,.83.63,2.32,2.32,0,0,0,2.47,1.14,2.73,2.73,0,0,0,1.49-.84A1.66,1.66,0,0,1,349.51,365.6Z"></path><path class="cls-30" d="M333.37,314.7c.83,4.32,12.11,2.72,11.88-1.1-.34-5.44,3.48-12.46,5-38.33.17-3,3.13-3.38,4.31-11.42s-3.59-17-3.59-17l-17.35-2.51s-6.69,15-5.34,30S332.38,309.61,333.37,314.7Z"></path><path class="cls-30" d="M345.22,312.69s3.93,7.82,4.38,13.47c.66,8.27-.22,35.48-.22,35.48s-4.27.92-6.55.24c0,0-9.93-48.29-10.29-53.48S345.22,312.69,345.22,312.69Z"></path><path class="cls-39" d="M314.46,193.05c2-2.25,8.2-5.94,16.52-5.67,5.74.19,21.35,1.17,23.09,5,.89,2,1.81,22,.49,29-1,5.2-3.53,18.1-3.53,21.21s1.66,4.45.88,5.35c-1.75,2-13.7,2.85-19.31,2.84-5,0-13.49-1.36-13.91-3-.64-2.37,1-2.28,1.2-4.77s1.42-18.9,0-21.29c-2.32-3.79-4.6-13.76-4.78-16.62S312.5,195.3,314.46,193.05Z"></path><path class="cls-40" d="M350.19,209.36c.59,1.24,4.62,7.74,4.62,7.74l.17.78a34.42,34.42,0,0,1-.42,3.47c-1,5.2-3.53,18.1-3.53,21.21s1.66,4.45.88,5.35-3,1.42-5.94,1.87a7.5,7.5,0,0,0,1.35-1.93c.23-.91-1.3-.68-1.58-1.45s3.5-15.81,4.43-23S349.6,208.12,350.19,209.36Z"></path><path class="cls-36" d="M326.1,180.31s-.07,6.92-.35,7.2a11,11,0,0,1-1.65.93s1,6,2.48,5.57,11.47-5.45,11.47-5.45-1.41-.58-1.41-1.14S338,176,338,176"></path><path class="cls-36" d="M333.06,155.17c-1.45.39-5.28-.41-6.33,1.17s-2,5.41-2.39,6.46a67.17,67.17,0,0,0-1.88,6.51c-.76,2.82-2,8,.76,10.36a3.67,3.67,0,0,0,2.13,1.08c1.31.24,2.61.51,3.92.75,2,.37,4.26.79,6.28.14,2.69-.87,4.17-4.56,4.86-7.07l4-14.37Z"></path><path class="cls-12" d="M326.2,195.66s-.59,25.49-1.66,41l3.74,5.17,2.59-6.46a197.06,197.06,0,0,0-2.37-39.51Z"></path><path class="cls-12" d="M325.34,193.42l.09.35a7.43,7.43,0,0,0,.77,1.89h0l2.3.19s1.57-.82,1.78-1.7-2.57-2.33-2.57-2.33l-.33.13a5.07,5.07,0,0,0-2,1.44Z"></path><path class="cls-29" d="M336.9,185a14.26,14.26,0,0,1,3.13,3.17,29.36,29.36,0,0,1-7.66,9.48,13.29,13.29,0,0,0-4.66-5.84S336.07,190.11,336.9,185Z"></path><path class="cls-29" d="M327.71,191.82a9.87,9.87,0,0,0-4.58,4.34,21.91,21.91,0,0,1,.64-8.07s1.55-2.59,2.2-2.64C325.69,188.52,327.71,191.82,327.71,191.82Z"></path><path class="cls-39" d="M316.15,191.57c-5.07,2.81-13.8,31.77-14.77,32.09s-20.66,23.43-20.66,23.43l3.11,4.22s19.87-14.39,25.58-20.7c4-4.44,11.64-24.28,11.64-24.28S321.23,188.76,316.15,191.57Z"></path><path class="cls-40" d="M307.54,229.43c2-1.73,8.23-20.13,8.23-20.13l1.48,6.3c-2.49,5.81-5.69,12.63-7.84,15-5.71,6.31-25.58,20.7-25.58,20.7l-1.21-1.64S305.57,231.17,307.54,229.43Z"></path><line class="cls-41" x1="355.88" y1="264.03" x2="359.44" y2="246.42"></line><path class="cls-36" d="M357.81,255s-1.19,2.43-1.83,3.66c-.42.81-3.59,3.5-4.86,5.64a5.44,5.44,0,0,0-1,3.4,2.28,2.28,0,0,0,2.45,2.08c.33-.08.72-.24,1,0a1.51,1.51,0,0,1,.28.44,1.34,1.34,0,0,0,2.47-.34,2.26,2.26,0,0,0,3,0,1.8,1.8,0,0,1-.73-1.59,3.61,3.61,0,0,1,.92-1.48,4.55,4.55,0,0,0,.95-2.9c0-.74-.21-1.46-.29-2.2a6.88,6.88,0,0,1,1-4.36"></path><path class="cls-39" d="M348.82,206.36c.91,3.25,14.74,24.61,14.74,24.61l-7.47,27,4.22,2.66s13.24-21.91,13.29-28.1-9.6-28.91-16.67-38.2c-2.25-3-6.77-4.46-6.77-4.46"></path><path class="cls-37" d="M341.9,172.08c-.91-.53-1.61-1.1-2.2-.22-.32.46-.51,1.1-1.05,1.26a1.09,1.09,0,0,1-1.22-.87,3.1,3.1,0,0,1,.21-1.64c.36-1.18.73-2.36,1.1-3.54a5.3,5.3,0,0,0,.26-3.54,4,4,0,0,0-1.11-1.43,11.82,11.82,0,0,0-5.43-2.33,57.63,57.63,0,0,1-5.84-1.22,6.33,6.33,0,0,1-2.23-1.12,4.86,4.86,0,0,1-1.57-3.6A7.52,7.52,0,0,1,324,150a6.39,6.39,0,0,0,.58,1.34,5.08,5.08,0,0,1,1.07-1.67c.56,3.17,13.9,2.13,17,3.53,2.15,1,3.94,1.61,3.87,5.11a1.28,1.28,0,0,0,.42.56c1.91,1.76,2.73,3.9,3,7.08.29,3.88-2,8.09-4.21,11.28a7,7,0,0,1-1.65,2,4.41,4.41,0,0,1-3.1.7c-1-.19-2.85-.11-2.87-1.09,0-.7,1.49-2,1.9-2.51"></path><path class="cls-36" d="M338.4,175.75a1.5,1.5,0,0,0,.25,1.16,1.48,1.48,0,0,0,1.58.23,4.23,4.23,0,0,0,2.67-3.26c.31-1.68-.59-3.37-2.12-2.93a2.25,2.25,0,0,0-1.46,2.21"></path><path class="cls-38" d="M326.11,180.9l4.27.8a6,6,0,0,1-4.33,1.59"></path><path class="cls-42" d="M316.37,315.3c-.77-2.54,1.41-6.47,2.49-9.41s9.18-26.4,9.18-26.4l1.77,9.48c-1.69,4.06-3.52,8.4-5.36,12.23h0c-.71,1.48-1.42,2.87-2.12,4.15-1.28,2.88-2.63,6.75-2.43,10,.46,1.5,2.5,10.88,1.18,16.29-2.78,11.43-3.5,28.3-3.5,28.3a16.36,16.36,0,0,1-2,.23c.23-4.16.65-11.52.7-13,.07-2.05,2.69-13.87,2.51-18.55A63.27,63.27,0,0,0,316.37,315.3Z"></path><path class="cls-37" d="M340.8,179.85s4.3,1.76,5.37-.66a8.72,8.72,0,0,1,1.36-2.11,5.84,5.84,0,0,1,2.82-1.78c.86-.24,1.48-.93,1.34-3.36-.11-1.83-.57-1.62-.61-3.05s1.65-2.23.52-4.69c-.45-1-1.06-.77-1.74-2.46-.94-2.32,1.31-3.22.21-4.3s-3.33-1.94-3.07-3.36a2,2,0,0,0-2.24-2.35c-1.41,0-2.42-.14-3.09-.88s-1.22-1.44-2.09-1.54c-.72-.09-2.95.11-3.38-.27-.76-.66-2-1-2.69-.48a2.81,2.81,0,0,1-2.15.59c-.66-.31-.66-.84-2-.64s-2.66-.94-4.12.27L323.78,150l.72,5.58,12,2.47,4.87,6.48,1.47,6.37.54,6Z"></path><path class="cls-37" d="M323.78,150s-1.69-.44-1.93,1.9,1.55,3.84.78,5.09a11.1,11.1,0,0,0-.77,8.54l2.16-6.4,1.72-6.62Z"></path><path class="cls-37" d="M322.63,152.09a2.67,2.67,0,0,0-3,2.62c-.23,2.94,2.05,2.22,1.83,4.4s-.87,2-.87,2-.76,3.94,1.27,4.37l2.39-8.81Z"></path><path class="cls-37" d="M327.85,158.92s-2.09-1.08-4.25,5.42l-1-7.36,4.1-1.62Z"></path></g></g></g></svg>
